<svg width="400" height="400" viewBox="0 0 400 400" fill="none" xmlns="http://www.w3.org/2000/svg">
<path d="M400 0H0V400H400V0Z" fill="#049CE3"/>
<path d="M321.864 107.148C318.594 75.0467 291.435 50 258.412 50C231.944 50 209.251 66.0898 199.596 89.0004C189.941 66.0898 167.248 50 140.782 50C107.757 50 80.5945 75.0467 77.3285 107.148C77.1103 109.287 77 111.46 77 113.658C77 191.003 172.105 227.508 199.596 279.093C227.087 227.51 322.192 191.005 322.192 113.658C322.192 111.46 322.082 109.287 321.864 107.148Z" fill="white"/>
<path d="M210.721 214.495L248.44 183.575L269.943 201.208C274.238 204.724 276.65 209.492 276.65 214.463C276.65 219.435 274.238 224.202 269.943 227.718L264.63 232.065C262.506 233.81 259.981 235.195 257.201 236.14C254.421 237.084 251.441 237.571 248.43 237.571C245.419 237.571 242.438 237.084 239.658 236.14C236.878 235.195 234.354 233.81 232.23 232.065L210.721 214.495ZM269.889 121.835L264.554 117.488C260.256 113.975 254.428 112 248.352 112C242.277 112 236.449 113.975 232.152 117.488L199.822 143.999L167.421 117.488C163.124 113.975 157.297 112 151.221 112C145.145 112 139.318 113.975 135.019 117.488L129.708 121.835C125.413 125.351 123 130.119 123 135.09C123 140.062 125.413 144.829 129.708 148.345L162.109 174.855L129.708 201.366C125.413 204.882 123 209.649 123 214.621C123 219.592 125.413 224.36 129.708 227.876L135.019 232.222C139.318 235.736 145.145 237.71 151.221 237.71C157.297 237.71 163.124 235.736 167.421 232.222L269.943 148.342C274.238 144.825 276.65 140.057 276.65 135.086C276.65 130.115 274.238 125.347 269.943 121.831L269.889 121.835Z" fill="#049CE3"/>
<path d="M122.419 293.514L129.498 313.501L136.539 293.514H143.995V321.072H138.298V313.539L138.867 300.536L131.429 321.072H127.53L120.11 300.555L120.678 313.539V321.072H115V293.514H122.419ZM158.021 321.451C155.018 321.451 152.569 320.529 150.677 318.687C148.796 316.844 147.856 314.391 147.856 311.324V310.794C147.856 308.738 148.255 306.902 149.049 305.287C149.844 303.659 150.967 302.41 152.418 301.539C153.882 300.656 155.547 300.214 157.414 300.214C160.216 300.214 162.418 301.097 164.02 302.864C165.635 304.63 166.443 307.136 166.443 310.378V312.612H153.403C153.579 313.949 154.109 315.022 154.992 315.829C155.888 316.637 157.017 317.04 158.38 317.04C160.487 317.04 162.134 316.277 163.32 314.75L166.008 317.76C165.187 318.92 164.077 319.829 162.676 320.485C161.276 321.129 159.724 321.451 158.021 321.451ZM157.396 304.643C156.311 304.643 155.428 305.009 154.746 305.741C154.078 306.472 153.648 307.52 153.46 308.883H161.068V308.447C161.043 307.236 160.715 306.302 160.084 305.646C159.453 304.978 158.557 304.643 157.396 304.643ZM168.715 310.681C168.715 307.489 169.427 304.945 170.853 303.054C172.292 301.161 174.253 300.214 176.739 300.214C178.733 300.214 180.38 300.958 181.68 302.447V292H187.168V321.072H182.228L181.963 318.896C180.601 320.599 178.847 321.451 176.701 321.451C174.291 321.451 172.354 320.504 170.891 318.611C169.439 316.705 168.715 314.062 168.715 310.681ZM174.184 311.079C174.184 312.996 174.518 314.466 175.187 315.488C175.856 316.511 176.828 317.021 178.102 317.021C179.793 317.021 180.985 316.308 181.68 314.883V306.801C180.998 305.375 179.818 304.662 178.139 304.662C175.502 304.662 174.184 306.801 174.184 311.079ZM201.628 303.015L206.795 293.514H213.325L205.3 307.18L213.533 321.072H206.928L201.628 311.419L196.328 321.072H189.723L197.956 307.18L189.932 293.514H196.461L201.628 303.015ZM234.485 311.021C234.485 314.176 233.766 316.705 232.328 318.611C230.901 320.504 228.97 321.451 226.536 321.451C224.466 321.451 222.794 320.731 221.519 319.293V328.945H216.05V300.592H221.122L221.312 302.599C222.637 301.009 224.365 300.214 226.498 300.214C229.021 300.214 230.984 301.148 232.384 303.015C233.784 304.883 234.485 307.456 234.485 310.737V311.021ZM229.015 310.624C229.015 308.718 228.674 307.249 227.993 306.214C227.324 305.179 226.346 304.662 225.06 304.662C223.343 304.662 222.163 305.318 221.519 306.631V315.015C222.189 316.365 223.381 317.04 225.097 317.04C227.71 317.04 229.015 314.902 229.015 310.624ZM247.317 321.451C244.314 321.451 241.866 320.529 239.973 318.687C238.094 316.844 237.154 314.391 237.154 311.324V310.794C237.154 308.738 237.551 306.902 238.345 305.287C239.141 303.659 240.264 302.41 241.715 301.539C243.179 300.656 244.845 300.214 246.712 300.214C249.513 300.214 251.714 301.097 253.317 302.864C254.932 304.63 255.74 307.136 255.74 310.378V312.612H242.699C242.875 313.949 243.406 315.022 244.289 315.829C245.185 316.637 246.314 317.04 247.676 317.04C249.784 317.04 251.431 316.277 252.616 314.75L255.304 317.76C254.485 318.92 253.373 319.829 251.974 320.485C250.573 321.129 249.021 321.451 247.317 321.451ZM246.692 304.643C245.608 304.643 244.724 305.009 244.042 305.741C243.374 306.472 242.945 307.52 242.756 308.883H250.365V308.447C250.339 307.236 250.011 306.302 249.38 305.646C248.75 304.978 247.854 304.643 246.692 304.643ZM270.371 305.722C269.625 305.621 268.97 305.571 268.402 305.571C266.333 305.571 264.976 306.271 264.332 307.672V321.072H258.862V300.592H264.03L264.182 303.034C265.279 301.154 266.799 300.214 268.743 300.214C269.348 300.214 269.916 300.296 270.446 300.46L270.371 305.722ZM280.515 295.559V300.592H284.016V304.605H280.515V314.826C280.515 315.582 280.66 316.125 280.95 316.454C281.24 316.782 281.796 316.946 282.616 316.946C283.221 316.946 283.757 316.901 284.225 316.813V320.959C283.152 321.286 282.048 321.451 280.913 321.451C277.076 321.451 275.121 319.514 275.045 315.64V304.605H272.055V300.592H275.045V295.559H280.515Z" fill="white"/>
</svg>
