<svg width="400" height="400" viewBox="0 0 400 400" fill="none" xmlns="http://www.w3.org/2000/svg">
<path d="M321.903 107.924C318.646 75.9484 291.594 51 258.7 51C232.336 51 209.732 67.0267 200.115 89.8473C190.497 67.0267 167.894 51 141.532 51C108.636 51 81.5804 75.9484 78.3272 107.924C78.1099 110.054 78 112.219 78 114.408C78 191.449 172.731 227.811 200.115 279.194C227.498 227.814 322.23 191.452 322.23 114.408C322.23 112.219 322.12 110.054 321.903 107.924Z" fill="#009FE1"/>
<path d="M212.859 211.473L256.07 176.052L280.703 196.252C285.624 200.281 288.387 205.742 288.387 211.437C288.387 217.132 285.624 222.594 280.703 226.622L274.617 231.601C272.184 233.601 269.291 235.187 266.106 236.27C262.922 237.352 259.507 237.909 256.058 237.909C252.61 237.909 249.194 237.352 246.009 236.27C242.824 235.187 239.933 233.601 237.499 231.601L212.859 211.473ZM280.642 105.323L274.53 100.344C269.606 96.3188 262.93 94.0566 255.97 94.0566C249.009 94.0566 242.334 96.3188 237.411 100.344L200.374 130.715L163.256 100.344C158.333 96.3188 151.658 94.0566 144.697 94.0566C137.737 94.0566 131.061 96.3188 126.137 100.344L120.052 105.323C115.132 109.352 112.368 114.814 112.368 120.509C112.368 126.204 115.132 131.666 120.052 135.693L157.17 166.062L120.052 196.433C115.132 200.461 112.368 205.922 112.368 211.617C112.368 217.312 115.132 222.774 120.052 226.803L126.137 231.781C131.061 235.807 137.737 238.068 144.697 238.068C151.658 238.068 158.333 235.807 163.256 231.781L280.703 135.689C285.624 131.661 288.387 126.199 288.387 120.504C288.387 114.809 285.624 109.347 280.703 105.318L280.642 105.323Z" fill="white"/>
</svg>
