<svg width="400" height="400" viewBox="0 0 400 400" fill="none" xmlns="http://www.w3.org/2000/svg">
<path d="M338.864 107.148C335.594 75.0467 308.435 50 275.412 50C248.944 50 226.251 66.0898 216.596 89.0004C206.941 66.0898 184.248 50 157.782 50C124.757 50 97.5945 75.0467 94.3285 107.148C94.1103 109.287 94 111.46 94 113.658C94 191.003 189.105 227.508 216.596 279.093C244.087 227.51 339.192 191.005 339.192 113.658C339.192 111.46 339.082 109.287 338.864 107.148Z" fill="white"/>
<path d="M227.721 214.495L265.44 183.575L286.943 201.208C291.238 204.724 293.65 209.492 293.65 214.463C293.65 219.435 291.238 224.202 286.943 227.718L281.63 232.065C279.506 233.81 276.981 235.195 274.201 236.14C271.421 237.084 268.441 237.571 265.43 237.571C262.419 237.571 259.438 237.084 256.658 236.14C253.878 235.195 251.354 233.81 249.23 232.065L227.721 214.495ZM286.889 121.835L281.554 117.488C277.256 113.975 271.428 112 265.352 112C259.277 112 253.449 113.975 249.152 117.488L216.822 143.999L184.421 117.488C180.124 113.975 174.297 112 168.221 112C162.145 112 156.318 113.975 152.019 117.488L146.708 121.835C142.413 125.351 140 130.119 140 135.09C140 140.062 142.413 144.829 146.708 148.345L179.109 174.855L146.708 201.366C142.413 204.882 140 209.649 140 214.621C140 219.592 142.413 224.36 146.708 227.876L152.019 232.222C156.318 235.736 162.145 237.71 168.221 237.71C174.297 237.71 180.124 235.736 184.421 232.222L286.943 148.342C291.238 144.825 293.65 140.057 293.65 135.086C293.65 130.115 291.238 125.347 286.943 121.831L286.889 121.835Z" fill="#049CE3"/>
</svg>
