<svg width="27" height="28" viewBox="0 0 27 28" fill="none" xmlns="http://www.w3.org/2000/svg">
<g clip-path="url(#clip0_463_435)">
<path d="M24.2418 14.8403C19.8745 6.83371 20.7886 7.41435 16.5409 7.41435C16.0799 4.67955 12.1276 4.68192 11.6671 7.41435C0.2866 7.41435 0.508506 7.23884 0.508506 7.82633C0.508506 8.4166 -0.466455 8.23832 18.5345 8.23832C19.843 8.23832 20.2301 9.28378 20.8098 10.2982C18.0313 10.2982 17.2376 10.0848 16.4892 10.9817C15.7866 11.8235 16.0991 12.6569 16.3155 13.847C16.5059 14.8941 17.4166 15.654 18.4808 15.654H23.9933C25.163 15.654 26.0516 16.5915 26.0516 17.6964V21.3418C26.0516 22.5218 25.0916 23.4817 23.9117 23.4817H23.141C22.6615 19.6558 17.0818 19.6588 16.6026 23.4817H8.30949C7.82994 19.6558 2.25022 19.6588 1.77108 23.4817C1.19333 23.4817 0.508455 23.3463 0.508455 23.8937C0.508455 24.441 1.18761 24.3057 1.77108 24.3057C2.25064 28.1316 7.83035 28.1286 8.30949 24.3057H16.6025C17.0821 28.1316 22.6618 28.1286 23.1409 24.3057H23.9116C25.5459 24.3057 26.8755 22.9761 26.8755 21.3418V17.6964C26.8755 16.1943 25.7138 14.9592 24.2418 14.8403V14.8403ZM15.6997 7.41435H12.5081C12.9318 5.77434 15.2751 5.77043 15.6997 7.41435ZM17.1262 13.6996C16.8935 12.42 16.712 12.0006 17.1217 11.5096C17.5496 10.9969 17.7554 11.1223 21.2752 11.1223L23.2976 14.8301H18.4808C17.815 14.8301 17.2452 14.3546 17.1262 13.6996V13.6996ZM5.04029 26.3656C3.67729 26.3656 2.56838 25.2567 2.56838 23.8937C2.56838 22.5307 3.67729 21.4218 5.04029 21.4218C6.40329 21.4218 7.5122 22.5307 7.5122 23.8937C7.5122 25.2567 6.40329 26.3656 5.04029 26.3656ZM19.8717 26.3656C18.5087 26.3656 17.3998 25.2567 17.3998 23.8937C17.3998 22.5307 18.5087 21.4218 19.8717 21.4218C21.2347 21.4218 22.3436 22.5307 22.3436 23.8937C22.3436 25.2567 21.2347 26.3656 19.8717 26.3656Z" />
<path d="M11.2332 10.2981H10.383C9.7087 10.2981 9.16014 10.8467 9.16014 11.5209V12.77H7.91105C7.23679 12.77 6.68823 13.3186 6.68823 13.9928V14.8431C6.68823 15.5174 7.23679 16.0659 7.91105 16.0659H9.16014V17.315C9.16014 17.9893 9.7087 18.5378 10.383 18.5378H11.2332C11.9075 18.5378 12.4561 17.9893 12.4561 17.315V16.0659H13.7052C14.3794 16.0659 14.928 15.5174 14.928 14.8431V13.9928C14.928 13.3186 14.3794 12.77 13.7052 12.77H12.4561V11.5209C12.4561 10.8467 11.9075 10.2981 11.2332 10.2981V10.2981ZM13.7052 13.594C14.2348 13.594 14.104 14.2536 14.104 14.8431C14.104 15.3746 13.561 15.2419 12.0441 15.2419C11.4948 15.2419 11.6321 15.8102 11.6321 17.315C11.6321 17.8446 10.9725 17.7138 10.383 17.7138C9.85145 17.7138 9.98416 17.1708 9.98416 15.6539C9.98416 15.1046 9.41588 15.2419 7.91111 15.2419C7.3815 15.2419 7.51225 14.5823 7.51225 13.9928C7.51225 13.4613 8.05525 13.594 9.57218 13.594C10.1215 13.594 9.98416 13.0257 9.98416 11.5209C9.98416 10.9913 10.6437 11.1221 11.2332 11.1221C11.7648 11.1221 11.6321 11.6651 11.6321 13.182C11.6321 13.7314 12.2004 13.594 13.7052 13.594Z" />
<path d="M0.92051 13.5941H4.21638C4.76103 13.5941 4.76185 12.7701 4.21638 12.7701H0.92051C0.375867 12.7701 0.375043 13.5941 0.92051 13.5941V13.5941Z" />
<path d="M0.92051 16.0661H2.15646C2.38398 16.0661 2.56845 15.8816 2.56845 15.6541C2.56845 15.1051 1.93713 15.2421 0.92051 15.2421C0.375867 15.2421 0.375043 16.0661 0.92051 16.0661V16.0661Z" />
<path d="M0.92051 18.1259C2.88444 18.1259 3.39242 18.2633 3.39242 17.7139C3.39242 17.1649 2.88568 17.3019 0.92051 17.3019C0.375867 17.3019 0.375043 18.1259 0.92051 18.1259V18.1259Z" />
<path d="M14.104 4.11848C14.6553 4.11848 14.516 3.66669 14.516 1.2346C14.516 0.689954 13.692 0.68913 13.692 1.2346V3.7065C13.692 3.93407 13.8764 4.11848 14.104 4.11848Z" />
<path d="M18.471 3.62398C18.9067 3.29723 18.4131 2.63754 17.9766 2.96481C16.4055 4.14319 15.9166 4.338 16.2463 4.77754C16.5763 5.21754 16.9233 4.7848 18.471 3.62398V3.62398Z" />
<path d="M9.7369 3.62406C11.5452 4.98027 11.446 4.94247 11.6317 4.94247C12.0258 4.94247 12.1959 4.43845 11.8792 4.20089C10.308 3.02251 9.98404 2.60769 9.65445 3.04733C9.51798 3.22933 9.55491 3.48754 9.7369 3.62406V3.62406Z" />
</g>
<defs>
<clipPath id="clip0_463_435">
<rect width="26.3754" height="26.3754" fill="white" transform="translate(0.5 0.812256)"/>
</clipPath>
</defs>
</svg>
