<svg width="27" height="27" viewBox="0 0 27 27" fill="none" xmlns="http://www.w3.org/2000/svg">
<mask id="path-1-inside-1_463_448" fill="white">
<path d="M21.8235 22.7036H4.55205C4.43685 22.7036 4.32732 22.6544 4.25111 22.5682C4.17509 22.4823 4.13963 22.368 4.15393 22.254L5.60262 10.7608C5.87124 8.62958 7.70042 7.02209 9.85739 7.02209H16.5182C18.6751 7.02209 20.5043 8.62958 20.7729 10.7608L22.2216 22.254C22.2359 22.368 22.2005 22.4823 22.1244 22.5682C22.0482 22.6544 21.9387 22.7036 21.8235 22.7036ZM5.0068 21.9043H21.3687L19.9767 10.8607C19.7582 9.12795 18.2713 7.82135 16.5182 7.82135H9.85739C8.10423 7.82135 6.61733 9.12795 6.39887 10.8607L5.0068 21.9043Z"/>
</mask>
<path d="M4.25111 22.5682L5.00045 21.906L4.99981 21.9052L4.25111 22.5682ZM4.15393 22.254L3.16178 22.1289L3.16171 22.1295L4.15393 22.254ZM5.60262 10.7608L6.59477 10.8859L6.59477 10.8858L5.60262 10.7608ZM20.7729 10.7608L19.7808 10.8858L19.7808 10.8859L20.7729 10.7608ZM22.2216 22.254L23.2138 22.1295L23.2138 22.1289L22.2216 22.254ZM22.1244 22.5682L21.3757 21.9052L21.3751 21.906L22.1244 22.5682ZM5.0068 21.9043L4.01465 21.7793L3.87284 22.9043H5.0068V21.9043ZM21.3687 21.9043V22.9043H22.5027L22.3609 21.7793L21.3687 21.9043ZM19.9767 10.8607L20.9688 10.7356L20.9688 10.7356L19.9767 10.8607ZM6.39887 10.8607L5.40672 10.7356L5.40672 10.7356L6.39887 10.8607ZM21.8235 21.7036H4.55205V23.7036H21.8235V21.7036ZM4.55205 21.7036C4.72216 21.7036 4.88596 21.7764 5.00045 21.906L3.50177 23.2303C3.76869 23.5324 4.15154 23.7036 4.55205 23.7036V21.7036ZM4.99981 21.9052C5.11413 22.0344 5.1677 22.2068 5.14614 22.3785L3.16171 22.1295C3.11156 22.5291 3.23605 22.9302 3.50241 23.2311L4.99981 21.9052ZM5.14608 22.3791L6.59477 10.8859L4.61047 10.6357L3.16178 22.1289L5.14608 22.3791ZM6.59477 10.8858C6.79998 9.25772 8.20121 8.02209 9.85739 8.02209V6.02209C7.19963 6.02209 4.9425 8.00144 4.61047 10.6357L6.59477 10.8858ZM9.85739 8.02209H16.5182V6.02209H9.85739V8.02209ZM16.5182 8.02209C18.1743 8.02209 19.5756 9.25772 19.7808 10.8858L21.7651 10.6357C21.4331 8.00144 19.1759 6.02209 16.5182 6.02209V8.02209ZM19.7808 10.8859L21.2295 22.3791L23.2138 22.1289L21.7651 10.6357L19.7808 10.8859ZM21.2294 22.3785C21.2078 22.2068 21.2614 22.0344 21.3757 21.9052L22.8731 23.2311C23.1395 22.9302 23.264 22.5291 23.2138 22.1295L21.2294 22.3785ZM21.3751 21.906C21.4896 21.7764 21.6534 21.7036 21.8235 21.7036V23.7036C22.224 23.7036 22.6069 23.5324 22.8738 23.2303L21.3751 21.906ZM5.0068 22.9043H21.3687V20.9043H5.0068V22.9043ZM22.3609 21.7793L20.9688 10.7356L18.9845 10.9858L20.3766 22.0294L22.3609 21.7793ZM20.9688 10.7356C20.6869 8.49986 18.7722 6.82135 16.5182 6.82135V8.82135C17.7705 8.82135 18.8295 9.75603 18.9845 10.9858L20.9688 10.7356ZM16.5182 6.82135H9.85739V8.82135H16.5182V6.82135ZM9.85739 6.82135C7.60337 6.82135 5.6886 8.49986 5.40672 10.7356L7.39102 10.9858C7.54606 9.75603 8.60508 8.82135 9.85739 8.82135V6.82135ZM5.40672 10.7356L4.01465 21.7793L5.99895 22.0294L7.39102 10.9858L5.40672 10.7356Z"  mask="url(#path-1-inside-1_463_448)"/>
<mask id="path-3-inside-2_463_448" fill="white">
<path d="M8.00405 16.2138C7.9872 16.2138 7.97055 16.2126 7.9535 16.2107C7.73367 16.1834 7.57771 15.9835 7.60534 15.7642L8.01933 12.4798C8.07948 12.0021 8.26992 11.5506 8.57008 11.174C8.70763 11.0019 8.96076 10.9722 9.13377 11.1096C9.30736 11.2469 9.33636 11.4983 9.19862 11.6712C8.98996 11.933 8.85751 12.2472 8.81558 12.5797L8.40159 15.8641C8.37612 16.0659 8.20331 16.2138 8.00405 16.2138ZM22.4426 26.3754H3.93267C3.08998 26.3754 2.40423 25.7147 2.40423 24.9022V23.3774C2.40423 22.5649 3.08998 21.9042 3.93267 21.9042H22.4426C23.2855 21.9042 23.9712 22.5649 23.9712 23.3774V24.9022C23.9712 25.7147 23.2855 26.3754 22.4426 26.3754ZM3.93267 22.7035C3.53238 22.7035 3.20675 23.0059 3.20675 23.3774V24.9022C3.20675 25.2737 3.53238 25.5762 3.93267 25.5762H22.4426C22.8428 25.5762 23.1687 25.2737 23.1687 24.9022V23.3774C23.1687 23.0059 22.8428 22.7035 22.4426 22.7035H3.93267ZM13.1877 3.37615C12.9661 3.37615 12.7865 3.19741 12.7865 2.97652V0.399628C12.7865 0.17874 12.9661 0 13.1877 0C13.4093 0 13.589 0.17874 13.589 0.399628V2.97652C13.589 3.19741 13.4093 3.37615 13.1877 3.37615ZM20.3994 6.35111C20.2968 6.35111 20.1941 6.31209 20.1157 6.23404C19.959 6.07793 19.959 5.82504 20.1157 5.66894L21.9453 3.84681C22.102 3.6907 22.356 3.6907 22.5127 3.84681C22.6695 4.00291 22.6695 4.2558 22.5127 4.4119L20.6831 6.23404C20.6048 6.31209 20.5021 6.35111 20.3994 6.35111ZM25.9742 13.5335H23.3867C23.1651 13.5335 22.9855 13.3547 22.9855 13.1339C22.9855 12.913 23.1651 12.7342 23.3867 12.7342H25.9742C26.1958 12.7342 26.3754 12.913 26.3754 13.1339C26.3754 13.3547 26.1958 13.5335 25.9742 13.5335ZM2.98868 13.5335H0.40126C0.179666 13.5335 0 13.3547 0 13.1339C0 12.913 0.179666 12.7342 0.40126 12.7342H2.98868C3.21028 12.7342 3.38995 12.913 3.38995 13.1339C3.38995 13.3547 3.21028 13.5335 2.98868 13.5335ZM5.976 6.35111C5.87333 6.35111 5.77067 6.31209 5.69229 6.23404L3.86272 4.4119C3.70598 4.2558 3.70598 4.00291 3.86272 3.84681C4.01946 3.6907 4.27338 3.6907 4.43013 3.84681L6.2597 5.66894C6.41644 5.82504 6.41644 6.07793 6.2597 6.23404C6.18133 6.31209 6.07866 6.35111 5.976 6.35111Z"/>
</mask>
<path d="M7.9535 16.2107L7.83017 17.2031L7.83977 17.2042L7.9535 16.2107ZM7.60534 15.7642L6.61319 15.6392L6.61317 15.6392L7.60534 15.7642ZM8.01933 12.4798L9.01148 12.6048L9.0115 12.6047L8.01933 12.4798ZM8.57008 11.174L7.7889 10.5497L7.78808 10.5507L8.57008 11.174ZM9.13377 11.1096L8.51192 11.8927L8.51322 11.8937L9.13377 11.1096ZM9.19862 11.6712L9.9807 12.2943L9.98075 12.2943L9.19862 11.6712ZM8.81558 12.5797L7.82344 12.4546L7.82343 12.4546L8.81558 12.5797ZM8.40159 15.8641L9.39371 15.9894L9.39374 15.9892L8.40159 15.8641ZM23.9712 24.9022L22.9712 24.9022L23.9712 24.9022ZM20.1157 6.23404L20.8214 5.52549L20.8214 5.52549L20.1157 6.23404ZM20.1157 5.66894L19.4101 4.96039L19.4101 4.96039L20.1157 5.66894ZM21.9453 3.84681L22.651 4.55535L22.651 4.55535L21.9453 3.84681ZM22.5127 4.4119L23.2184 5.12045L23.2184 5.12045L22.5127 4.4119ZM20.6831 6.23404L19.9775 5.52549L19.9775 5.52549L20.6831 6.23404ZM5.69229 6.23404L6.39796 5.52549L6.39796 5.52549L5.69229 6.23404ZM3.86272 4.4119L3.15706 5.12045L3.15706 5.12045L3.86272 4.4119ZM4.43013 3.84681L5.13579 3.13826L5.13579 3.13826L4.43013 3.84681ZM6.2597 5.66894L5.55404 6.37748L5.55404 6.37748L6.2597 5.66894ZM6.2597 6.23404L5.55404 5.52549L5.55404 5.52549L6.2597 6.23404ZM8.00405 15.2138C8.03372 15.2138 8.05605 15.2159 8.06723 15.2172L7.83977 17.2042C7.88504 17.2094 7.94068 17.2138 8.00405 17.2138V15.2138ZM8.07682 15.2183C8.40285 15.2588 8.63933 15.5571 8.5975 15.8892L6.61317 15.6392C6.51609 16.41 7.06449 17.1079 7.83018 17.203L8.07682 15.2183ZM8.59748 15.8893L9.01148 12.6048L7.02718 12.3547L6.61319 15.6392L8.59748 15.8893ZM9.0115 12.6047C9.04869 12.3093 9.16639 12.0302 9.35209 11.7972L7.78808 10.5507C7.37346 11.0709 7.11027 11.6948 7.02717 12.3548L9.0115 12.6047ZM9.35127 11.7983C9.14703 12.0538 8.77329 12.1002 8.51193 11.8927L9.75561 10.3264C9.14824 9.84415 8.26822 9.94989 7.7889 10.5497L9.35127 11.7983ZM8.51322 11.8937C8.25365 11.6883 8.20856 11.309 8.41649 11.048L9.98075 12.2943C10.4642 11.6875 10.3611 10.8056 9.75432 10.3254L8.51322 11.8937ZM8.41655 11.048C8.09335 11.4536 7.88831 11.9401 7.82344 12.4546L9.80773 12.7048C9.82671 12.5543 9.88657 12.4125 9.9807 12.2943L8.41655 11.048ZM7.82343 12.4546L7.40944 15.7391L9.39374 15.9892L9.80773 12.7047L7.82343 12.4546ZM7.40946 15.7389C7.44826 15.4315 7.70879 15.2138 8.00405 15.2138V17.2138C8.69782 17.2138 9.30397 16.7002 9.39371 15.9894L7.40946 15.7389ZM22.4426 25.3754H3.93267V27.3754H22.4426V25.3754ZM3.93267 25.3754C3.60716 25.3754 3.40423 25.128 3.40423 24.9022H1.40423C1.40423 26.3015 2.5728 27.3754 3.93267 27.3754V25.3754ZM3.40423 24.9022V23.3774H1.40423V24.9022H3.40423ZM3.40423 23.3774C3.40423 23.1517 3.60716 22.9042 3.93267 22.9042V20.9042C2.5728 20.9042 1.40423 21.9782 1.40423 23.3774H3.40423ZM3.93267 22.9042H22.4426V20.9042H3.93267V22.9042ZM22.4426 22.9042C22.7684 22.9042 22.9712 23.1517 22.9712 23.3774H24.9712C24.9712 21.9781 23.8025 20.9042 22.4426 20.9042V22.9042ZM22.9712 23.3774V24.9022H24.9712V23.3774H22.9712ZM22.9712 24.9022C22.9712 25.1279 22.7684 25.3754 22.4426 25.3754V27.3754C23.8025 27.3754 24.9712 26.3015 24.9712 24.9022L22.9712 24.9022ZM3.93267 21.7035C3.05118 21.7035 2.20675 22.3851 2.20675 23.3774H4.20675C4.20675 23.4939 4.154 23.5838 4.10006 23.6339C4.04724 23.683 3.9859 23.7035 3.93267 23.7035V21.7035ZM2.20675 23.3774V24.9022H4.20675V23.3774H2.20675ZM2.20675 24.9022C2.20675 25.8945 3.05119 26.5762 3.93267 26.5762V24.5762C3.9859 24.5762 4.04724 24.5967 4.10005 24.6457C4.154 24.6958 4.20675 24.7858 4.20675 24.9022H2.20675ZM3.93267 26.5762H22.4426V24.5762H3.93267V26.5762ZM22.4426 26.5762C23.3237 26.5762 24.1687 25.8948 24.1687 24.9022H22.1687C22.1687 24.7856 22.2215 24.6956 22.2754 24.6456C22.3281 24.5966 22.3894 24.5762 22.4426 24.5762V26.5762ZM24.1687 24.9022V23.3774H22.1687V24.9022H24.1687ZM24.1687 23.3774C24.1687 22.3848 23.3237 21.7035 22.4426 21.7035V23.7035C22.3894 23.7035 22.3281 23.683 22.2754 23.634C22.2215 23.584 22.1687 23.4941 22.1687 23.3774H24.1687ZM22.4426 21.7035H3.93267V23.7035H22.4426V21.7035ZM13.1877 2.37615C13.5142 2.37615 13.7865 2.64097 13.7865 2.97652H11.7865C11.7865 3.75385 12.418 4.37615 13.1877 4.37615V2.37615ZM13.7865 2.97652V0.399628H11.7865V2.97652H13.7865ZM13.7865 0.399628C13.7865 0.735179 13.5142 1 13.1877 1V-1C12.418 -1 11.7865 -0.3777 11.7865 0.399628H13.7865ZM13.1877 1C12.8612 1 12.589 0.735183 12.589 0.399628H14.589C14.589 -0.377703 13.9574 -1 13.1877 -1V1ZM12.589 0.399628V2.97652H14.589V0.399628H12.589ZM12.589 2.97652C12.589 2.64097 12.8612 2.37615 13.1877 2.37615V4.37615C13.9574 4.37615 14.589 3.75385 14.589 2.97652H12.589ZM20.3994 5.35111C20.5501 5.35111 20.7045 5.40911 20.8214 5.52549L19.4101 6.94258C19.6837 7.21506 20.0435 7.35111 20.3994 7.35111V5.35111ZM20.8214 5.52549C21.0571 5.76024 21.0571 6.14274 20.8214 6.37748L19.4101 4.96039C18.8609 5.50735 18.8609 6.39563 19.4101 6.94258L20.8214 5.52549ZM20.8214 6.37748L22.651 4.55535L21.2396 3.13826L19.4101 4.96039L20.8214 6.37748ZM22.651 4.55535C22.4175 4.78785 22.0405 4.78785 21.807 4.55535L23.2184 3.13826C22.6714 2.59355 21.7866 2.59355 21.2396 3.13826L22.651 4.55535ZM21.807 4.55535C21.5713 4.32061 21.5713 3.9381 21.807 3.70336L23.2184 5.12045C23.7676 4.5735 23.7676 3.68522 23.2184 3.13826L21.807 4.55535ZM21.807 3.70336L19.9775 5.52549L21.3888 6.94258L23.2184 5.12045L21.807 3.70336ZM19.9775 5.52549C20.0943 5.40911 20.2488 5.35111 20.3994 5.35111V7.35111C20.7554 7.35111 21.1152 7.21506 21.3888 6.94258L19.9775 5.52549ZM25.9742 12.5335H23.3867V14.5335H25.9742V12.5335ZM23.3867 12.5335C23.7133 12.5335 23.9855 12.7983 23.9855 13.1339H21.9855C21.9855 13.9112 22.617 14.5335 23.3867 14.5335V12.5335ZM23.9855 13.1339C23.9855 13.4694 23.7133 13.7342 23.3867 13.7342V11.7342C22.617 11.7342 21.9855 12.3565 21.9855 13.1339H23.9855ZM23.3867 13.7342H25.9742V11.7342H23.3867V13.7342ZM25.9742 13.7342C25.6476 13.7342 25.3754 13.4694 25.3754 13.1339H27.3754C27.3754 12.3565 26.7439 11.7342 25.9742 11.7342V13.7342ZM25.3754 13.1339C25.3754 12.7983 25.6476 12.5335 25.9742 12.5335V14.5335C26.7439 14.5335 27.3754 13.9112 27.3754 13.1339H25.3754ZM2.98868 12.5335H0.40126V14.5335H2.98868V12.5335ZM0.40126 12.5335C0.727785 12.5335 1 12.7983 1 13.1339H-1C-1 13.9112 -0.368453 14.5335 0.40126 14.5335V12.5335ZM1 13.1339C1 13.4694 0.727785 13.7342 0.40126 13.7342V11.7342C-0.368453 11.7342 -1 12.3565 -1 13.1339H1ZM0.40126 13.7342H2.98868V11.7342H0.40126V13.7342ZM2.98868 13.7342C2.66216 13.7342 2.38995 13.4694 2.38995 13.1339H4.38995C4.38995 12.3565 3.7584 11.7342 2.98868 11.7342V13.7342ZM2.38995 13.1339C2.38995 12.7983 2.66216 12.5335 2.98868 12.5335V14.5335C3.7584 14.5335 4.38995 13.9112 4.38995 13.1339H2.38995ZM5.976 5.35111C6.12662 5.35111 6.28111 5.40911 6.39796 5.52549L4.98663 6.94258C5.26022 7.21506 5.62004 7.35111 5.976 7.35111V5.35111ZM6.39796 5.52549L4.56838 3.70336L3.15706 5.12045L4.98663 6.94258L6.39796 5.52549ZM4.56838 3.70336C4.80409 3.9381 4.80409 4.32061 4.56838 4.55535L3.15706 3.13826C2.60787 3.68522 2.60787 4.5735 3.15706 5.12045L4.56838 3.70336ZM4.56838 4.55535C4.33493 4.78785 3.95791 4.78785 3.72446 4.55535L5.13579 3.13826C4.58886 2.59355 3.70399 2.59355 3.15706 3.13826L4.56838 4.55535ZM3.72446 4.55535L5.55404 6.37748L6.96537 4.96039L5.13579 3.13826L3.72446 4.55535ZM5.55404 6.37748C5.31833 6.14274 5.31833 5.76024 5.55404 5.52549L6.96537 6.94258C7.51456 6.39563 7.51456 5.50735 6.96537 4.96039L5.55404 6.37748ZM5.55404 5.52549C5.67089 5.40911 5.82538 5.35111 5.976 5.35111V7.35111C6.33195 7.35111 6.69177 7.21506 6.96537 6.94258L5.55404 5.52549Z"  mask="url(#path-3-inside-2_463_448)"/>
</svg>
