<svg width="27" height="28" viewBox="0 0 27 28" fill="none" xmlns="http://www.w3.org/2000/svg">
<path d="M21.1928 10.3843L15.332 5.82574C14.8177 5.42562 14.1846 5.20837 13.533 5.20837C12.8813 5.20837 12.2483 5.42562 11.7339 5.82574L5.872 10.3843C5.51971 10.6583 5.23469 11.0091 5.0387 11.41C4.84271 11.811 4.74094 12.2514 4.74115 12.6976V20.6103C4.74115 21.1932 4.97272 21.7523 5.38492 22.1645C5.79711 22.5767 6.35617 22.8082 6.9391 22.8082H20.1268C20.7098 22.8082 21.2688 22.5767 21.681 22.1645C22.0932 21.7523 22.3248 21.1932 22.3248 20.6103V12.6976C22.3248 11.7932 21.9072 10.9393 21.1928 10.3843Z" stroke-width="1.09898" stroke-linecap="round" stroke-linejoin="round"/>
<path d="M17.8959 17.2969C15.4671 18.7618 11.5306 18.7618 9.10406 17.2969"  stroke-width="1.09898" stroke-linecap="round" stroke-linejoin="round"/>
</svg>
