<svg width="27" height="28" viewBox="0 0 27 28" fill="none" xmlns="http://www.w3.org/2000/svg">
<path d="M13.6877 13.4725C14.7311 13.4725 15.7509 13.1632 16.6184 12.5835C17.4859 12.0039 18.162 11.18 18.5613 10.2161C18.9605 9.25224 19.065 8.1916 18.8615 7.16833C18.6579 6.14507 18.1555 5.20514 17.4178 4.4674C16.6801 3.72967 15.7401 3.22727 14.7169 3.02372C13.6936 2.82018 12.633 2.92465 11.6691 3.32391C10.7052 3.72317 9.88131 4.39929 9.30167 5.26677C8.72204 6.13425 8.41266 7.15414 8.41266 8.19745C8.41266 9.59649 8.96842 10.9382 9.9577 11.9275C10.947 12.9168 12.2887 13.4725 13.6877 13.4725V13.4725ZM13.6877 3.97738C14.5224 3.97738 15.3383 4.22488 16.0323 4.68859C16.7263 5.1523 17.2672 5.81138 17.5866 6.5825C17.906 7.35362 17.9896 8.20213 17.8267 9.02074C17.6639 9.83936 17.262 10.5913 16.6718 11.1815C16.0816 11.7717 15.3297 12.1736 14.511 12.3364C13.6924 12.4993 12.8439 12.4157 12.0728 12.0963C11.3017 11.7769 10.6426 11.236 10.1789 10.542C9.71518 9.84801 9.46768 9.0321 9.46768 8.19745C9.46768 7.07822 9.91229 6.00483 10.7037 5.21341C11.4951 4.42199 12.5685 3.97738 13.6877 3.97738V3.97738Z" />
<path d="M14.8061 14.5275H12.5695C11.2574 14.5316 9.95905 14.7942 8.74847 15.3001C7.53789 15.806 6.43882 16.5454 5.514 17.4761C4.58919 18.4068 3.85675 19.5106 3.35849 20.7243C2.86024 21.9381 2.60593 23.2381 2.6101 24.5501C2.6101 24.69 2.66567 24.8242 2.7646 24.9231C2.86353 25.0221 2.9977 25.0776 3.13761 25.0776H24.238C24.3844 25.0643 24.5203 24.9959 24.6182 24.8862C24.7161 24.7766 24.7687 24.6338 24.7655 24.4868C24.7599 21.8472 23.7088 19.3172 21.8423 17.4507C19.9757 15.5841 17.4458 14.533 14.8061 14.5275V14.5275ZM3.66511 24.0226C3.78908 21.746 4.77958 19.6032 6.4334 18.0337C8.08721 16.4643 10.2789 15.5872 12.5589 15.5825H14.7956C17.0792 15.5818 19.2762 16.4565 20.9345 18.0265C22.5928 19.5965 23.5863 21.7424 23.7105 24.0226H3.66511Z" />
</svg>
